# xmcd CD database file
#
# Track frame offsets:
#	150
#	13580
#	29105
#	44855
#	59780
#	70880
#	90455
#	105980
#	122705
#	132755
#	146855
#	156980
#	171380
#	179260
#
# Disc length: 2526 seconds
#
# Revision: 0
# Processed by: cddbd v1.5.2PL0 Copyright (c) Steve Scherf et al.
# Submitted via: CDex 2.02
#
DISCID=d309dc0e
DTITLE=Steve Mann - Straight Life
DYEAR=2009
DGENRE=Blues
TTITLE0=Vietnam Blues
TTITLE1=Cocaine
TTITLE2=Highway 61
TTITLE3=44 Blues
TTITLE4=If You Live
TTITLE5=Driftin' and Driftin'
TTITLE6=Elephant Song
TTITLE7=She Caught the Katy
TTITLE8=99 Year Blues
TTITLE9=Pallet On The Floor
TTITLE10=Here I Am Again
TTITLE11=1912 Shipwreck Blues
TTITLE12=Brother Can You Spare a Dime
TTITLE13=The Letter
EXTD=YEAR: 2009
EXTT0=
EXTT1=
EXTT2=
EXTT3=
EXTT4=
EXTT5=
EXTT6=
EXTT7=
EXTT8=
EXTT9=
EXTT10=
EXTT11=
EXTT12=
EXTT13=
PLAYORDER=
